HIERARCHY
ROOT Hips
{
	OFFSET -3.958830 18.904000 13.208200
	CHANNELS 6 Xposition Yposition Zposition Zrotation Yrotation Xrotation 
	JOINT LHipJoint
	{
		OFFSET 0.000000 0.000000 0.000000
		CHANNELS 3 Zrotation Yrotation Xrotation
		JOINT LeftUpLeg
		{
			OFFSET 1.800000 -1.400000 0.085000
			CHANNELS 3 Zrotation Yrotation Xrotation
			JOINT LeftLeg
			{
				OFFSET 2.215000 -6.000000 0.000000
				CHANNELS 3 Zrotation Yrotation Xrotation
				JOINT LeftFoot
				{
					OFFSET 2.500000 -6.900000 0.000000
					CHANNELS 3 Zrotation Yrotation Xrotation
					JOINT LeftToeBase
					{
						OFFSET 0.200000 -0.500000 1.950000
						CHANNELS 3 Zrotation Yrotation Xrotation
						End Site
						{
							OFFSET 0.000000 0.000000 0.000000
						}
					}
				}
			}
		}
	}
	JOINT RHipJoint
	{
		OFFSET 0.000000 0.000000 0.000000
		CHANNELS 3 Zrotation Yrotation Xrotation
		JOINT RightUpLeg
		{
			OFFSET -1.800000 -1.400000 0.085000
			CHANNELS 3 Zrotation Yrotation Xrotation
			JOINT RightLeg
			{
				OFFSET -2.215000 -6.000000 0.000000
				CHANNELS 3 Zrotation Yrotation Xrotation
				JOINT RightFoot
				{
					OFFSET -2.500000 -6.900000 0.000000
					CHANNELS 3 Zrotation Yrotation Xrotation
					JOINT RightToeBase
					{
						OFFSET -0.200000 -0.500000 1.950000
						CHANNELS 3 Zrotation Yrotation Xrotation
						End Site
						{
							OFFSET 0.000000 0.000000 0.000000
						}
					}
				}
			}
		}
	}
	JOINT LowerBack
	{
		OFFSET 0.000000 0.000000 0.000000
		CHANNELS 3 Zrotation Yrotation Xrotation
		JOINT Spine
		{
			OFFSET -0.087000 1.940000 -0.288900
			CHANNELS 3 Zrotation Yrotation Xrotation
			JOINT Spine1
			{
				OFFSET 0.000000 1.950000 0.060000
				CHANNELS 3 Zrotation Yrotation Xrotation
				JOINT Neck
				{
					OFFSET 0.000000 0.000000 0.000000
					CHANNELS 3 Zrotation Yrotation Xrotation
					JOINT Neck1
					{
						OFFSET 0.000000 1.600000 0.340000
						CHANNELS 3 Zrotation Yrotation Xrotation
						JOINT Head
						{
							OFFSET 0.000000 1.667000 -0.240000
							CHANNELS 3 Zrotation Yrotation Xrotation
							End Site
							{
								OFFSET 0.000000 0.000000 0.000000
							}
						}
					}
				}
				JOINT LeftShoulder
				{
					OFFSET 0.000000 0.000000 0.000000
					CHANNELS 3 Zrotation Yrotation Xrotation
					JOINT LeftArm
					{
						OFFSET 2.700000 1.550000 -0.730000
						CHANNELS 3 Zrotation Yrotation Xrotation
						JOINT LeftForeArm
						{
							OFFSET 5.450000 0.000000 0.000000
							CHANNELS 3 Zrotation Yrotation Xrotation
							JOINT LeftHand
							{
								OFFSET 3.450000 0.000000 0.000000
								CHANNELS 3 Zrotation Yrotation Xrotation
								JOINT LeftHandIndex1
								{
									OFFSET 0.750000 0.000000 0.000000
									CHANNELS 3 Zrotation Yrotation Xrotation
									End Site
									{
										OFFSET 0.000000 0.000000 0.000000
									}
								}
							}
						}
					}
				}
				JOINT RightShoulder
				{
					OFFSET 0.000000 0.000000 0.000000
					CHANNELS 3 Zrotation Yrotation Xrotation
					JOINT RightArm
					{
						OFFSET -2.700000 1.550000 -0.730000
						CHANNELS 3 Zrotation Yrotation Xrotation
						JOINT RightForeArm
						{
							OFFSET -5.450000 0.000000 0.000000
							CHANNELS 3 Zrotation Yrotation Xrotation
							JOINT RightHand
							{
								OFFSET -3.450000 0.000000 0.000000
								CHANNELS 3 Zrotation Yrotation Xrotation
								JOINT RightHandIndex1
								{
									OFFSET -0.750000 0.000000 0.000000
									CHANNELS 3 Zrotation Yrotation Xrotation
									End Site
									{
										OFFSET 0.000000 0.000000 0.000000
									}
								}
							}
						}
					}
				}
			}
		}
	}
}
MOTION
Frames: 8
Frame Time: 0.016667
-2.681470 11.966600 1.711360 -34.702469 -1.517484 -10.939164 -16.660603 10.490722 8.040516 38.833346 3.632276 -56.062446 -102.613532 69.395204 28.602936 2.973928 11.977075 1.051788 -0.384030 -0.615070 -0.268990 17.514986 -8.660608 0.169613 -33.254812 0.656206 5.849393 -5.921018 -5.261252 15.951188 -0.204894 -5.289037 2.634634 -0.448030 0.166800 -0.023570 -0.591675 -3.791940 -9.226384 -14.287058 23.048451 25.499780 12.272583 13.604152 -25.732857 12.106779 1.248580 -10.837758 -0.987487 -15.299755 33.147085 3.549530 -18.544830 5.269370 -5.008693 7.933871 -2.560332 -56.701206 -3.374937 -2.852885 -2.089375 -0.721227 0.052341 -3.953183 2.773943 0.023070 0.021570 -0.210240 -0.027700 -12.234429 4.130355 13.093920 -46.578969 -46.204041 15.293694 -57.736428 -10.949798 11.640422 3.148125 -1.367988 -0.065140 -0.056130 0.147340 0.044570 
-2.659810 11.958400 1.717440 -34.115341 -0.748108 -10.043144 -16.606183 10.235069 8.350801 38.927190 2.324964 -56.431707 -93.291509 74.485793 37.248014 2.996415 11.958663 1.040665 -0.375740 -0.612270 -0.256890 17.567733 -8.745702 0.097626 -33.571174 0.648303 4.976363 -6.638745 -5.182968 16.909924 -0.211409 -5.222223 2.645936 -0.472720 0.120970 -0.031350 -0.741674 -3.345946 -9.341904 -14.835523 22.786517 25.161943 12.094448 13.183482 -27.385548 11.638251 0.532463 -11.414207 -2.749914 -14.280336 35.339872 4.596060 -19.549810 5.364420 -2.703445 8.601410 -2.111745 -57.911789 -3.165780 -2.767932 -3.391183 -0.421255 0.095432 -3.884153 2.766416 0.056140 -0.025630 -0.174160 -0.032180 -13.389909 3.888013 13.315172 -45.977598 -46.074707 15.496699 -55.433509 -9.296458 10.609332 3.179214 -1.341453 -0.043690 -0.074400 0.131550 0.043980 
-2.639170 11.962050 1.728840 -33.687032 0.228191 -9.602076 -16.572391 9.905005 8.718951 39.676916 1.085265 -55.977731 -84.728573 78.002221 45.635859 3.068331 12.264135 0.916601 -0.298570 -0.540780 -0.187570 17.610256 -8.810458 0.030995 -33.903602 0.529404 4.526251 -6.951449 -5.264696 17.989869 -0.265534 -5.183742 2.623967 -0.450330 0.029470 -0.050580 -0.848850 -2.899820 -9.507299 -15.014082 21.334849 24.581399 12.317742 12.215205 -27.942553 10.749228 0.275275 -11.802087 -4.046969 -11.679004 40.143869 7.361770 -19.955950 4.206680 -0.862589 8.654967 -1.071483 -59.804958 -1.633870 -3.582573 -2.595578 -0.368419 0.056769 -3.781021 2.747938 0.144500 -0.117290 -0.098350 -0.037050 -13.847323 3.579190 12.274372 -43.906690 -43.005148 13.826043 -59.437149 -7.855124 10.688901 3.176427 -1.332863 -0.025190 -0.081370 0.093050 0.018260 
-2.650260 11.978590 1.713180 -32.445767 0.943521 -10.564099 -16.534809 9.636317 8.997772 39.930547 -0.411665 -54.312001 -77.256212 81.187781 53.817936 3.149560 12.766555 0.729962 -0.184870 -0.392730 -0.080990 17.646820 -8.925690 -0.080410 -34.426984 0.406238 4.731109 -8.838682 -5.048583 19.641201 -0.370938 -5.236218 2.570410 -0.367550 -0.065440 -0.068440 -0.953191 -2.512587 -9.556087 -16.468223 19.552735 24.141197 12.401035 11.136053 -26.209041 10.020801 1.815633 -12.107826 -1.686372 -9.212062 45.867158 9.118340 -17.410190 2.267670 -3.117275 5.342070 0.445438 -56.410061 0.076455 -4.044097 -2.817989 0.353213 -0.024941 -3.724292 2.717644 0.238550 -0.182160 0.000440 -0.047700 -11.068825 4.446694 11.144978 -43.441341 -40.486646 12.309982 -64.365851 -7.196279 10.878431 3.073052 -1.312567 -0.017370 -0.056410 0.048080 -0.027660 
-2.617440 12.000100 1.697810 -32.794913 1.372198 -11.073173 -16.606994 9.696206 9.245008 40.066358 -1.547058 -53.915007 -72.572619 81.637545 58.660197 3.247713 13.403959 0.536486 -0.146160 -0.365290 -0.006720 17.593021 -8.967659 -0.339441 -32.785222 0.026041 4.447076 -11.360272 -4.421055 22.280322 -0.404999 -5.190675 2.574439 -0.347810 -0.115070 -0.052370 -0.778869 -2.810252 -9.500038 -16.951904 18.824773 24.370883 13.790190 11.124994 -26.308114 10.284460 2.898668 -12.190012 0.551815 -8.726439 48.562278 8.575910 -15.842070 1.836740 -4.443576 4.598389 0.860455 -56.759835 1.955400 -5.135500 -1.748760 -0.495414 -0.108749 -3.721641 2.684100 0.297710 -0.197700 0.048320 -0.074480 -10.435712 4.392911 10.836013 -43.661405 -39.283167 12.230862 -65.532766 -3.554376 9.230855 3.009886 -1.282084 -0.022050 -0.059280 0.043250 -0.073150 
-2.599570 11.988250 1.658590 -32.037193 0.646320 -14.428355 -16.563084 10.106739 8.869095 38.578748 -1.656621 -50.974085 -77.986496 81.194594 53.987678 3.014145 12.682146 0.641872 -0.013020 -0.197460 0.113920 17.548723 -9.111325 -0.267167 -34.682067 -0.207152 5.410891 -11.646535 -4.823072 24.591110 -0.546464 -5.488064 2.423871 -0.255480 -0.207930 -0.054770 -0.791100 -3.090447 -9.456135 -16.262939 16.999286 27.219127 12.306308 10.914460 -23.889381 10.351923 4.088853 -12.237915 2.991071 -7.610522 54.019224 9.434250 -13.543810 -0.109450 -8.160750 2.478436 1.208046 -52.417444 2.384762 -4.344970 -2.690905 1.569496 -0.159308 -3.680787 2.675478 0.365710 -0.252270 0.144590 -0.074550 -7.473306 5.033813 10.239569 -42.775765 -38.305723 11.448248 -66.927707 -1.752370 8.235618 2.947122 -1.273070 0.003960 -0.044150 -0.017830 -0.108430 
-2.585380 11.975480 1.613260 -31.979903 0.092260 -16.888482 -16.634978 10.407587 8.864746 38.712344 -1.647837 -49.512793 -78.496185 81.048218 53.772531 2.930289 12.500876 0.661141 0.069940 -0.081590 0.156350 17.489371 -9.139652 -0.499094 -34.618733 -0.501366 4.913933 -14.127444 -4.278375 29.405420 -0.638336 -5.793427 2.298260 -0.179310 -0.225040 -0.050690 -0.611899 -3.641799 -9.348044 -16.654794 16.551310 29.193493 13.097128 11.312076 -20.664606 10.263904 4.651141 -11.373956 4.356224 -7.191845 54.329629 10.600550 -12.056380 -2.211150 -10.267086 1.889034 0.950075 -51.711053 1.479780 -3.870378 -2.985369 2.274642 -0.201506 -3.667159 2.707041 0.379650 -0.264350 0.178080 -0.053780 -5.604364 4.984509 9.270822 -42.535100 -37.173567 10.328754 -67.685384 -1.609429 7.626000 2.903840 -1.299480 0.015360 -0.024480 -0.050930 -0.110770 
-2.548220 11.973240 1.592600 -32.280785 -0.844427 -17.588255 -16.708790 10.422632 9.210370 39.749533 -1.695662 -48.147668 -73.407116 82.479682 59.033100 2.965287 12.768048 0.579183 0.125510 -0.011380 0.190020 17.473497 -9.178280 -0.805732 -32.697205 -0.467148 2.158446 -17.905569 -2.744363 36.278659 -0.751605 -6.214517 2.143395 -0.129330 -0.242920 -0.060050 -0.508115 -3.808686 -9.376059 -16.569261 15.409526 30.167902 13.725834 11.624688 -19.771583 10.043371 4.270674 -10.878901 4.161225 -5.858865 55.814783 11.435040 -10.972840 -3.288930 -11.780976 2.276443 0.740297 -51.594152 2.460731 -4.313111 -2.708833 2.467243 -0.269651 -3.650662 2.693325 0.408680 -0.285000 0.204130 -0.043530 -3.915000 4.930212 8.341181 -42.712744 -34.836604 9.878089 -64.557709 3.171613 4.473038 2.854909 -1.277531 0.011520 -0.000690 -0.069930 -0.120570 
